<?xml version="1.0" encoding="utf-8"?>
<?xml-stylesheet type="text/xsl" href="rss1.xsl"?>
<rss version="2.0" xmlns:atom="http://www.w3.org/2005/Atom" xmlns:content="http://purl.org/rss/1.0/modules/content/" xmlns:dc="http://purl.org/dc/elements/1.1/" xmlns:media="http://search.yahoo.com/mrss/">
<channel>
 <title>Getty</title>
 <link>http://www.gettyimg.com/</link>
 <atom:link href="http://www.gettyimg.com/" rel="self" type="application/rss+xml" />

 
                <item>
                <title><![CDATA[【Apple Music】WEB-RiP - Pitbull, El Alfa &amp; Tito El Bambino - Imaginate (1080p)]]></title>
                <link><![CDATA[https://sharemania.us/threads/pitbull-el-alfa-tito-el-bambino-imaginate-1080p.250654/]]></link>
                <description><![CDATA[<article>
<blockquote class="messageText SelectQuoteContainer ugc baseHtml">
<img src="https://i.postimg.cc/GmyVSrpv/Pitbull-El-Alfa-Tito-El-Bambino-Imaginate-mp4.jpg" class="bbCodeImage LbImage" alt="[​IMG]" data-url="https://i.postimg.cc/GmyVSrpv/Pitbull-El-Alfa-Tito-El-Bambino-Imaginate-mp4.jpg" style=""><br>
<br>
<div class="bbCodeBlock bbCodeCode">
<div class="type">Code:</div>
<pre>General
Complete name                  : G:\Новая папка\Pitbull, El Alfa &amp; Tito El Bambino - Imaginate.mp4
Format                         : MPEG-4
Format profile                 : Base Media
Codec ID                       : isom (isom/iso2/avc1/mp41)
File size                      : 378 MiB
Duration                       : 5 min 18 s
Overall bit rate               : 9 956 kb/s
Frame rate                     : 23.976 FPS
Movie name                     : Imaginate
Performer                      : Pitbull, El Alfa &amp; Tito El Bambino
Genre                          : Latin
ContentType                    : Music Video
Recorded date                  : 2019-09-05 07:00:00 UTC
Writing application            : Lavf56.30.100
Copyright                      : ℗ 2019 Tito El Bambino, LLC

Video
ID                             : 1
Format                         : AVC
Format/Info                    : Advanced Video Codec
Format profile                 : High@L4
Format settings                : CABAC / 4 Ref Frames
Format settings, CABAC         : Yes
Format settings, Reference fra : 4 frames
Format settings, Slice count   : 8 slices per frame
Codec ID                       : avc1
Codec ID/Info                  : Advanced Video Coding
Duration                       : 5 min 18 s
Bit rate                       : 9 698 kb/s
Width                          : 1 920 pixels
Height                         : 1 080 pixels
Display aspect ratio           : 16:9
Frame rate mode                : Constant
Frame rate                     : 23.976 (24000/1001) FPS
Color space                    : YUV
Chroma subsampling             : 4:2:0
Bit depth                      : 8 bits
Scan type                      : Progressive
Bits/(Pixel*Frame)             : 0.195
Stream size                    : 368 MiB (97%)
Color range                    : Limited
Color primaries                : BT.709
Transfer characteristics       : BT.709
Matrix coefficients            : BT.709
Codec configuration box        : avcC

Audio
ID                             : 2
Format                         : AAC LC
Format/Info                    : Advanced Audio Codec Low Complexity
Codec ID                       : mp4a-40-2
Duration                       : 5 min 18 s
Duration_LastFrame             : -13 ms
Bit rate mode                  : Constant
Bit rate                       : 254 kb/s
Channel(s)                     : 2 channels
Channel layout                 : L R
Sampling rate                  : 48.0 kHz
Frame rate                     : 46.875 FPS (1024 SPF)
Compression mode               : Lossy
Stream size                    : 9.64 MiB (3%)
Default                        : Yes
Alternate group                : 1

</pre>
</div>
<div class="bbCodeBlock bbCodeVfcHH HiddenContent">
<div class="attribution type">Hidden Content:</div>
<blockquote>You must either reply or click 'Like' to see the hidden information contained here.</blockquote>
</div>
<div class="messageTextEndMarker">&nbsp;</div>
</blockquote>
</article>]]></description>
                <author><![CDATA[vitalya3]]></author>
                </item>

                
                <item>
                <title><![CDATA[【Apple Music】WEB-RiP - Kendi - Oh Oh (1080p)]]></title>
                <link><![CDATA[https://sharemania.us/threads/kendi-oh-oh-1080p.250655/]]></link>
                <description><![CDATA[<article>
<blockquote class="messageText SelectQuoteContainer ugc baseHtml">
<img src="https://i.postimg.cc/2jhXNmRw/Kendi-Oh-Oh-mp4.jpg" class="bbCodeImage LbImage" alt="[​IMG]" data-url="https://i.postimg.cc/2jhXNmRw/Kendi-Oh-Oh-mp4.jpg" style=""><br>
<br>
<div class="bbCodeBlock bbCodeCode">
<div class="type">Code:</div>
<pre>General
Complete name                  : G:\Новая папка\Kendi - Oh Oh.mp4
Format                         : MPEG-4
Format profile                 : Base Media
Codec ID                       : isom (isom/iso2/avc1/mp41)
File size                      : 261 MiB
Duration                       : 3 min 36 s
Overall bit rate               : 10.1 Mb/s
Frame rate                     : 25.000 FPS
Movie name                     : Oh Oh
Performer                      : Kendi
Genre                          : Pop
ContentType                    : Music Video
Recorded date                  : 2014-11-03 08:00:00 UTC
Writing application            : Lavf56.30.100
Copyright                      : ℗ 2014 Kendi Müzik

Video
ID                             : 1
Format                         : AVC
Format/Info                    : Advanced Video Codec
Format profile                 : High@L4
Format settings                : CABAC / 4 Ref Frames
Format settings, CABAC         : Yes
Format settings, Reference fra : 4 frames
Format settings, Slice count   : 8 slices per frame
Codec ID                       : avc1
Codec ID/Info                  : Advanced Video Coding
Duration                       : 3 min 36 s
Bit rate                       : 9 849 kb/s
Width                          : 1 920 pixels
Height                         : 1 080 pixels
Display aspect ratio           : 16:9
Frame rate mode                : Constant
Frame rate                     : 25.000 FPS
Color space                    : YUV
Chroma subsampling             : 4:2:0
Bit depth                      : 8 bits
Scan type                      : Progressive
Bits/(Pixel*Frame)             : 0.190
Stream size                    : 255 MiB (97%)
Color range                    : Limited
Color primaries                : BT.709
Transfer characteristics       : BT.709
Matrix coefficients            : BT.709
Codec configuration box        : avcC

Audio
ID                             : 2
Format                         : AAC LC
Format/Info                    : Advanced Audio Codec Low Complexity
Codec ID                       : mp4a-40-2
Duration                       : 3 min 36 s
Duration_LastFrame             : -9 ms
Bit rate mode                  : Constant
Bit rate                       : 257 kb/s
Channel(s)                     : 2 channels
Channel layout                 : L R
Sampling rate                  : 48.0 kHz
Frame rate                     : 46.875 FPS (1024 SPF)
Compression mode               : Lossy
Stream size                    : 6.65 MiB (3%)
Default                        : Yes
Alternate group                : 1

</pre>
</div>
<div class="bbCodeBlock bbCodeVfcHH HiddenContent">
<div class="attribution type">Hidden Content:</div>
<blockquote>You must either reply or click 'Like' to see the hidden information contained here.</blockquote>
</div>
<div class="messageTextEndMarker">&nbsp;</div>
</blockquote>
</article>]]></description>
                <author><![CDATA[vitalya3]]></author>
                </item>

                
                <item>
                <title><![CDATA[【Requests】[REQ VID] - The 56th Annual Grammy Awards 2014]]></title>
                <link><![CDATA[https://sharemania.us/threads/the-56th-annual-grammy-awards-2014.250653/]]></link>
                <description><![CDATA[<article>
<blockquote class="messageText SelectQuoteContainer ugc baseHtml">
Can someone please upload the 56th Grammy Award show from 2014. Not just the performances or rehearsals, but the full show. All links currently available are dead <img src="styles/default/xenforo/smilies/unhappy-48.png" class="mceSmilie" alt=":(" title="Frown    :(">
<div class="messageTextEndMarker">&nbsp;</div>
</blockquote>
</article>]]></description>
                <author><![CDATA[nibberggez]]></author>
                </item>

                
                <item>
                <title><![CDATA[【Live Audios (lossless)】WAV - Ghost: Rite Here Rite Now (audio rip)]]></title>
                <link><![CDATA[https://sharemania.us/threads/ghost-rite-here-rite-now-audio-rip.250656/]]></link>
                <description><![CDATA[<article>
<blockquote class="messageText SelectQuoteContainer ugc baseHtml">
<img src="https://images.kerrangcdn.com/Ghost-Rite-Here-Rite-Now-feature-length-film-poster-header.jpg?auto=compress&amp;fit=crop&amp;w=1008" class="bbCodeImage LbImage" alt="[​IMG]" data-url="https://images.kerrangcdn.com/Ghost-Rite-Here-Rite-Now-feature-length-film-poster-header.jpg?auto=compress&amp;fit=crop&amp;w=1008" style=""> <br>
<br>
<br>
<br>
<br>
<br>
Audio ripped directly from the 4K movie file, enhanced with Adobe Audition. <br>
<br>
<i><span style="text-decoration: underline"><br>
Tracklist:</span></i><br>
<br>
<b><span style="font-size: 18px"><span style="color: #0000ff">Imperium (tape)<br>
Kaisarion<br>
Rats<br>
Faith<br>
Spillways<br>
Cirice<br>
Absolution<br>
Ritual<br>
Call Me Little Sunshine<br>
Con Clavi Con Dio<br>
Watcher in the Sky<br>
If You Have Ghosts <br>
Twenties<br>
Year Zero<br>
He Is<br>
Miasma<br>
Mary on a Cross<br>
Mummy Dust<br>
Respite on the Spitalfields<br>
Kiss the Go-Goat<br>
Dance Macabre<br>
Square Hammer</span></span></b><br>
<br>
Enjoy!<br>
<br>
PS: Please note:<br>
1.- In certain songs, this audio contains dialogues and added sound s which were part of the movie<br>
2.- This is not the soundtrack itself, which will come out later this week<br>
3.- Unfortunately 5 songs that are included on the movie (which contains the full set) won't be released as part of the soundtrack in streaming services. This is actually why I decided to rip the audio. The list is: <br>
<b>Ritual - Con Clavi Con Dio - Year Zero - He Is &amp; Mummy Dust<br>
<br>
<a href="https://drive.google.com/drive/folders/1OIOL1xxHx4qBLVEYeyBM2rY4B_AMCVA9?usp=sharing" target="_blank" class="externalLink" rel="nofollow">https://drive.google.com/drive/folders/1OIOL1xxHx4qBLVEYeyBM2rY4B_AMCVA9?usp=sharing</a></b>
<div class="messageTextEndMarker">&nbsp;</div>
</blockquote>
</article>]]></description>
                <author><![CDATA[jaimetallica]]></author>
                </item>

                </channel></rss>